<mxfile host="app.diagrams.net" modified="2022-10-16T16:55:32.183Z" agent="5.0 (Macintosh; Intel Mac OS X 10_15_7) AppleWebKit/537.36 (KHTML, like Gecko) Chrome/105.0.0.0 Safari/537.36" etag="rE4jzCxk3P-iCUwrtr5y" version="20.4.0" type="github">
  <diagram id="ELzksmDTUetFW_sS62uW" name="Page-1">
    <mxGraphModel dx="1176" dy="854" grid="1" gridSize="10" guides="1" tooltips="1" connect="1" arrows="1" fold="1" page="1" pageScale="1" pageWidth="1169" pageHeight="827" math="0" shadow="0">
      <root>
        <mxCell id="0" />
        <mxCell id="1" parent="0" />
        <mxCell id="PkQi8sEh-UZbKDsbQBtw-1" value="" style="rounded=0;whiteSpace=wrap;html=1;align=left;" vertex="1" parent="1">
          <mxGeometry x="40" y="40" width="200" height="250" as="geometry" />
        </mxCell>
        <mxCell id="PkQi8sEh-UZbKDsbQBtw-2" value="&lt;b&gt;&lt;font style=&quot;font-size: 18px;&quot;&gt;Services&lt;/font&gt;&lt;/b&gt;" style="text;html=1;strokeColor=#6c8ebf;fillColor=#dae8fc;align=center;verticalAlign=middle;whiteSpace=wrap;rounded=0;" vertex="1" parent="1">
          <mxGeometry x="60" y="60" width="160" height="30" as="geometry" />
        </mxCell>
        <mxCell id="PkQi8sEh-UZbKDsbQBtw-3" value="&amp;nbsp;Users" style="text;html=1;strokeColor=#666666;fillColor=#f5f5f5;align=left;verticalAlign=middle;whiteSpace=wrap;rounded=0;fontSize=18;fontColor=#333333;" vertex="1" parent="1">
          <mxGeometry x="60" y="120" width="160" height="30" as="geometry" />
        </mxCell>
        <mxCell id="PkQi8sEh-UZbKDsbQBtw-4" value="&amp;nbsp;Courses" style="text;html=1;strokeColor=#666666;fillColor=#f5f5f5;align=left;verticalAlign=middle;whiteSpace=wrap;rounded=0;fontSize=18;fontColor=#333333;" vertex="1" parent="1">
          <mxGeometry x="60" y="160" width="160" height="30" as="geometry" />
        </mxCell>
        <mxCell id="PkQi8sEh-UZbKDsbQBtw-5" value="&amp;nbsp;Lessons" style="text;html=1;strokeColor=#666666;fillColor=#f5f5f5;align=left;verticalAlign=middle;whiteSpace=wrap;rounded=0;fontSize=18;fontColor=#333333;" vertex="1" parent="1">
          <mxGeometry x="60" y="200" width="160" height="30" as="geometry" />
        </mxCell>
        <mxCell id="PkQi8sEh-UZbKDsbQBtw-6" value="&amp;nbsp;Quiz" style="text;html=1;strokeColor=#666666;fillColor=#f5f5f5;align=left;verticalAlign=middle;whiteSpace=wrap;rounded=0;fontSize=18;fontColor=#333333;" vertex="1" parent="1">
          <mxGeometry x="60" y="240" width="160" height="30" as="geometry" />
        </mxCell>
      </root>
    </mxGraphModel>
  </diagram>
</mxfile>
